<?xml version="1.0" encoding="UTF-8"?>
<svg width="512" height="512" viewBox="0 0 512 512" fill="none" xmlns="http://www.w3.org/2000/svg">
  <!-- Background with safe zone -->
  <rect width="512" height="512" fill="#FF004F"/>
  
  <!-- TikTok logo in white, centered in the safe zone -->
  <path d="M355.904 137.6C346.88 135.36 338.688 130.56 331.776 123.712C321.088 113.152 315.456 98.56 315.456 83.2H256V314.368C256 337.92 236.8 357.12 213.248 357.12C189.696 357.12 170.496 337.92 170.496 314.368C170.496 290.816 189.696 271.616 213.248 271.616C219.008 271.616 224.512 272.768 229.376 274.816V214.656C224.192 213.824 218.88 213.376 213.248 213.376C157.184 213.376 111.36 259.2 111.36 315.264C111.36 371.328 157.184 417.152 213.248 417.152C269.312 417.152 315.136 371.328 315.136 315.264V219.648C336.32 234.112 362.112 242.688 389.376 242.688V183.552C389.376 183.552 371.84 183.552 355.904 137.6Z" fill="white"/>
  <path d="M362.464 177.088V170.432C348.16 170.432 334.336 166.784 322.304 159.936C333.44 174.016 347.136 177.088 362.464 177.088Z" fill="white"/>
</svg> 