<?xml version="1.0" encoding="UTF-8"?>
<svg width="96" height="96" viewBox="0 0 96 96" fill="none" xmlns="http://www.w3.org/2000/svg">
  <circle cx="48" cy="48" r="48" fill="#FF004F"/>
  <path d="M60 36H54V34C54 31.8 52.2 30 50 30H46C43.8 30 42 31.8 42 34V36H36C33.8 36 32 37.8 32 40V62C32 64.2 33.8 66 36 66H60C62.2 66 64 64.2 64 62V40C64 37.8 62.2 36 60 36ZM46 34H50V36H46V34ZM60 62H36V40H60V62Z" fill="white"/>
  <path d="M50 44H46V48H50V44Z" fill="white"/>
  <path d="M58 44H54V48H58V44Z" fill="white"/>
  <path d="M42 44H38V48H42V44Z" fill="white"/>
  <path d="M50 52H46V56H50V52Z" fill="white"/>
  <path d="M58 52H54V56H58V52Z" fill="white"/>
  <path d="M42 52H38V56H42V52Z" fill="white"/>
</svg> 